<?xml version="1.0" encoding="utf-8"?>
<!-- Generator: Adobe Illustrator 16.0.0, SVG Export Plug-In . SVG Version: 6.00 Build 0)  -->
<!DOCTYPE svg PUBLIC "-//W3C//DTD SVG 1.1//EN" "http://www.w3.org/Graphics/SVG/1.1/DTD/svg11.dtd">
<svg version="1.1" id="레이어_1" xmlns:sketch="http://www.bohemiancoding.com/sketch/ns"
	 xmlns="http://www.w3.org/2000/svg" xmlns:xlink="http://www.w3.org/1999/xlink" x="0px" y="0px" width="40px" height="40px"
	 viewBox="0 0 40 40" enable-background="new 0 0 40 40" xml:space="preserve">
<circle fill="#E6E3E3" cx="20" cy="20" r="20"/>
<g>
	<circle fill="#FFFFFF" cx="20" cy="20" r="19.709"/>
	<path fill-opacity="0.08" d="M31.438,3.947c8.863,6.316,10.931,18.623,4.614,27.486C29.734,40.3,17.429,42.365,8.563,36.048"/>
</g>
<g>
	<path fill="#1587EA" d="M19.061,21.637l-6.688-4.313c-0.217-0.14-0.5-0.125-0.7,0.037l-4.497,3.618
		c-0.318,0.256-0.292,0.749,0.051,0.971l6.688,4.313c0.217,0.14,0.5,0.125,0.7-0.037l4.496-3.618
		C19.43,22.352,19.404,21.858,19.061,21.637z"/>
	<path fill="#1587EA" d="M20.888,22.607l4.496,3.618c0.201,0.162,0.482,0.177,0.7,0.037l6.688-4.313
		c0.343-0.222,0.369-0.715,0.052-0.971l-4.497-3.618c-0.201-0.162-0.483-0.177-0.7-0.037l-6.688,4.313
		C20.595,21.858,20.569,22.352,20.888,22.607z"/>
	<path fill="#1587EA" d="M19.112,11.282l-4.496-3.618c-0.201-0.162-0.483-0.177-0.7-0.037L7.228,11.94
		c-0.344,0.222-0.37,0.714-0.051,0.971l4.497,3.618c0.201,0.161,0.483,0.177,0.7,0.036l6.688-4.313
		C19.404,12.031,19.43,11.539,19.112,11.282z"/>
	<path fill="#1587EA" d="M32.771,11.94l-6.688-4.313c-0.218-0.14-0.499-0.125-0.7,0.037l-4.496,3.618
		c-0.318,0.256-0.293,0.749,0.051,0.971l6.688,4.313c0.217,0.141,0.5,0.125,0.7-0.036l4.497-3.618
		C33.141,12.654,33.114,12.162,32.771,11.94z"/>
	<path fill="#1587EA" d="M19.672,23.242l-5.035,4.017c-0.183,0.146-0.438,0.159-0.634,0.032l-1.241-0.801
		c-0.362-0.232-0.838,0.027-0.838,0.458v0.433c0,0.19,0.099,0.366,0.262,0.465l7.496,4.543c0.173,0.105,0.391,0.105,0.564,0
		l7.496-4.543c0.162-0.099,0.262-0.274,0.262-0.465v-0.387c0-0.431-0.477-0.69-0.838-0.456l-1.168,0.753
		c-0.197,0.127-0.452,0.113-0.635-0.032l-5.012-4.016C20.153,23.085,19.871,23.084,19.672,23.242z"/>
</g>
</svg>
