<?xml version="1.0" encoding="iso-8859-1"?>
<!-- Generator: Adobe Illustrator 19.0.0, SVG Export Plug-In . SVG Version: 6.00 Build 0)  -->
<svg version="1.1" id="Capa_1" xmlns="http://www.w3.org/2000/svg" xmlns:xlink="http://www.w3.org/1999/xlink" x="0px" y="0px"
	 viewBox="0 0 512 512" style="enable-background:new 0 0 512 512;" xml:space="preserve">
<g>
	<circle style="fill:#A4C2F7;" cx="256" cy="256" r="247.467"/>
	<ellipse style="fill:#E3E7F2;" cx="243.2" cy="256" rx="234.667" ry="247.467"/>
	<circle style="fill:#7FACFA;" cx="256" cy="247.467" r="68.258"/>
	<g>
		<path style="fill:#A4C2F7;" d="M190.02,236.647c9.757-36.412,41.464-59.553,70.821-51.686
			c29.357,7.866,45.246,43.76,35.489,80.172c-9.757,36.412-36.573,49.933-65.93,42.067c-15.145-3.287-28.187-12.843-35.885-26.294
			C186.817,267.455,185.183,251.371,190.02,236.647L190.02,236.647z"/>
		<path style="fill:#A4C2F7;" d="M494.916,320.521c-47.532-41.303-119.166-37.825-162.473,7.888s-42.912,117.43,0.898,162.662
			C412.427,464.97,473.124,400.902,494.916,320.521z"/>
	</g>
	<path style="fill:#FFFFFF;" d="M256,503.467c2.204,0,4.38-0.108,6.57-0.167C135.856,499.806,34.133,390.469,34.133,256
		S135.856,12.194,262.57,8.7c-2.19-0.058-4.366-0.167-6.57-0.167C119.328,8.533,8.533,119.328,8.533,256
		S119.328,503.467,256,503.467L256,503.467z"/>
	<path style="fill:#A4C2F7;" d="M35.016,311.933c-5.995,3.5-11.669,7.522-16.958,12.019c22.9,79.955,84.361,143.102,163.668,168.157
		c38.437-43.131,39.877-107.785,3.398-152.585S85.041,283.034,35.016,311.933z"/>
	<g>
		<path style="fill:#E3E7F2;" d="M462.114,392.942c-7.761-20.579-28.741-33.038-50.525-30.004
			c-21.784,3.034-38.561,20.752-40.403,42.668c-1.842,21.917,11.741,42.187,32.713,48.815
			C426.673,437.404,446.363,416.61,462.114,392.942z"/>
		<path style="fill:#E3E7F2;" d="M70.327,373.094c-8.563,4.941-15.342,12.467-19.365,21.498
			c16.508,24.331,37.198,45.543,61.11,62.652c16.163-6.778,27.221-21.976,28.696-39.441c1.475-17.465-6.878-34.302-21.676-43.695
			C104.293,364.715,85.502,364.324,70.327,373.094L70.327,373.094z"/>
	</g>
	<g>
		<path style="fill:#428DFF;" d="M256,512C114.615,512,0,397.385,0,256S114.615,0,256,0s256,114.615,256,256
			C511.84,397.319,397.319,511.84,256,512z M256,17.067C124.041,17.067,17.067,124.041,17.067,256S124.041,494.933,256,494.933
			S494.933,387.959,494.933,256C494.785,124.102,387.898,17.215,256,17.067z"/>
		<path style="fill:#428DFF;" d="M195.808,363.55c-3.865,0.005-7.251-2.588-8.253-6.321c-1.002-3.733,0.63-7.673,3.978-9.604
			l16.308-9.417c2.641-1.526,5.896-1.527,8.537-0.002c2.642,1.525,4.269,4.344,4.268,7.394c-0.001,3.05-1.629,5.868-4.272,7.392
			l-16.308,9.417C198.772,363.157,197.303,363.551,195.808,363.55z"/>
		<path style="fill:#428DFF;" d="M230.4,422.4h-18.833c-4.713,0-8.533-3.82-8.533-8.533s3.821-8.533,8.533-8.533H230.4
			c4.713,0,8.533,3.821,8.533,8.533S235.113,422.4,230.4,422.4z"/>
		<path style="fill:#428DFF;" d="M152.708,320.467c-3.048-0.002-5.863-1.629-7.386-4.269c-1.523-2.64-1.522-5.892,0.002-8.531
			l9.417-16.308c2.358-4.08,7.575-5.477,11.656-3.121s5.481,7.573,3.127,11.655l-9.417,16.308
			C158.583,318.845,155.761,320.472,152.708,320.467L152.708,320.467z"/>
		<path style="fill:#428DFF;" d="M93.867,304.7c-2.263,0.001-4.434-0.898-6.035-2.499c-1.6-1.6-2.499-3.771-2.499-6.035v-18.833
			c0-4.713,3.821-8.533,8.533-8.533c4.713,0,8.533,3.82,8.533,8.533v18.833c0.001,2.263-0.898,4.434-2.499,6.035
			C98.301,303.802,96.13,304.7,93.867,304.7z"/>
		<path style="fill:#428DFF;" d="M70.333,381.625c-3.053,0.005-5.875-1.622-7.4-4.267L27.625,316.2
			c-2.356-4.082-0.957-9.302,3.125-11.658s9.302-0.957,11.658,3.125l35.308,61.158c1.524,2.639,1.525,5.891,0.002,8.531
			C76.196,379.996,73.381,381.623,70.333,381.625L70.333,381.625z"/>
		<path style="fill:#428DFF;" d="M201.388,470.275c-1.195,0.002-2.377-0.251-3.467-0.742l-64.517-28.725
			c-2.793-1.234-4.714-3.867-5.035-6.904c-0.322-3.037,1.004-6.014,3.477-7.806c2.473-1.792,5.714-2.125,8.5-0.874l64.517,28.725
			c3.682,1.638,5.716,5.629,4.877,9.57C208.9,467.462,205.417,470.279,201.388,470.275L201.388,470.275z"/>
		<path style="fill:#428DFF;" d="M125.367,387.408c-3.369-0.002-6.421-1.986-7.791-5.064c-1.37-3.078-0.8-6.674,1.453-9.178
			l47.254-52.475c3.153-3.502,8.548-3.786,12.05-0.633c3.502,3.153,3.786,8.548,0.633,12.05l-47.254,52.475
			C130.096,386.386,127.788,387.413,125.367,387.408L125.367,387.408z"/>
		<path style="fill:#428DFF;" d="M316.192,359.283c-1.495,0-2.964-0.394-4.258-1.142l-16.308-9.417
			c-2.642-1.523-4.271-4.341-4.272-7.392c-0.001-3.05,1.626-5.869,4.268-7.394s5.896-1.524,8.537,0.002l16.308,9.417
			c3.348,1.931,4.98,5.871,3.978,9.604C323.443,356.695,320.057,359.289,316.192,359.283L316.192,359.283z"/>
		<path style="fill:#428DFF;" d="M359.292,316.2c-3.053,0.005-5.875-1.622-7.4-4.267l-9.417-16.308
			c-1.526-2.641-1.527-5.896-0.002-8.537c1.525-2.642,4.344-4.269,7.394-4.268c3.05,0.001,5.868,1.629,7.392,4.272l9.417,16.308
			c1.524,2.639,1.525,5.891,0.002,8.531C365.155,314.571,362.339,316.198,359.292,316.2z"/>
		<path style="fill:#428DFF;" d="M300.433,418.133H281.6c-4.713,0-8.533-3.821-8.533-8.533c0-4.713,3.82-8.533,8.533-8.533h18.833
			c4.713,0,8.533,3.821,8.533,8.533C308.966,414.313,305.146,418.133,300.433,418.133z"/>
		<path style="fill:#428DFF;" d="M418.133,300.433c-2.263,0.001-4.434-0.898-6.035-2.499c-1.6-1.6-2.499-3.771-2.499-6.035v-18.833
			c0-4.713,3.82-8.533,8.533-8.533s8.533,3.82,8.533,8.533V291.9c0.001,2.263-0.898,4.434-2.499,6.035
			C422.568,299.535,420.397,300.434,418.133,300.433z"/>
		<path style="fill:#428DFF;" d="M394.6,377.358c-3.053,0.005-5.875-1.622-7.4-4.267l-35.308-61.158
			c-2.356-4.082-0.957-9.302,3.125-11.658c4.082-2.356,9.302-0.957,11.658,3.125l35.308,61.158c1.524,2.639,1.525,5.891,0.002,8.531
			C400.463,375.729,397.648,377.356,394.6,377.358L394.6,377.358z"/>
		<path style="fill:#428DFF;" d="M302.996,442.608c-4.366-0.006-8.024-3.305-8.478-7.647c-0.454-4.342,2.441-8.327,6.711-9.236
			l69.079-14.683c4.598-0.949,9.1,1.993,10.076,6.585c0.976,4.593-1.94,9.112-6.526,10.114l-69.079,14.683
			C304.193,442.547,303.595,442.609,302.996,442.608z"/>
		<path style="fill:#428DFF;" d="M181.725,500.642c-0.868,0.001-1.731-0.131-2.558-0.392
			C96.992,474.546,33.323,409.131,9.85,326.292c-0.92-3.234,0.141-6.708,2.712-8.875c5.671-4.82,11.757-9.128,18.188-12.875l0,0
			c53.652-30.995,121.87-18.456,160.993,29.592s37.578,117.392-3.647,163.65C186.478,499.603,184.16,500.643,181.725,500.642
			L181.725,500.642z M27.871,327c22.539,72.973,78.72,130.702,151.054,155.217c32.926-40.943,32.005-99.535-2.19-139.424
			s-91.959-49.751-137.452-23.468h-0.004C35.31,321.627,31.499,324.191,27.871,327z"/>
		<path style="fill:#428DFF;" d="M333.342,499.6c-2.324,0.001-4.547-0.947-6.154-2.625c-46.736-48.558-47.039-125.279-0.688-174.205
			c46.351-48.925,122.977-52.766,173.988-8.72c2.484,2.141,3.52,5.517,2.667,8.683c-22.316,83.282-85.192,149.655-167.146,176.442
			C335.147,499.455,334.247,499.599,333.342,499.6z M417.967,300.492c-38.978,0.014-74.986,20.827-94.454,54.594
			c-19.469,33.768-19.438,75.358,0.079,109.097c3.519,6.058,7.627,11.755,12.262,17.008c72.24-25.45,127.818-84.109,149.338-157.616
			C465.981,308.607,442.321,300.483,417.967,300.492L417.967,300.492z"/>
		<path style="fill:#428DFF;" d="M403.9,462.95c-0.875-0.001-1.745-0.136-2.579-0.4c-23.685-7.519-39.504-29.844-38.745-54.682
			c0.759-24.839,17.91-46.157,42.01-52.216c24.1-6.059,49.294,4.613,61.71,26.139c1.48,2.603,2.75,5.32,3.796,8.125
			c0.975,2.573,0.65,5.459-0.875,7.75c-16.276,24.493-36.644,46.004-60.212,63.592C407.528,462.356,405.739,462.949,403.9,462.95
			L403.9,462.95z M418.067,371.058c-18.198-0.003-33.914,12.736-37.678,30.541c-3.764,17.805,5.452,35.814,22.094,43.176
			c19.235-14.942,36.076-32.733,49.942-52.758c-0.296-0.592-0.6-1.158-0.917-1.708C444.604,378.375,431.854,371.035,418.067,371.058
			L418.067,371.058z"/>
		<path style="fill:#428DFF;" d="M112.071,465.775c-1.784,0-3.522-0.56-4.971-1.6c-24.746-17.679-46.147-39.621-63.205-64.8
			c-1.656-2.448-1.928-5.578-0.721-8.275c9.859-21.954,32.724-35.072,56.653-32.503s43.488,20.243,48.461,43.79
			c4.973,23.547-5.768,47.62-26.614,59.646c-2.033,1.159-4.139,2.186-6.304,3.075C114.326,465.55,113.204,465.776,112.071,465.775z
			 M60.9,393.95c14.463,20.412,32.04,38.428,52.087,53.392l0.146-0.083c11.928-6.885,19.277-19.61,19.279-33.383
			c0.002-13.773-7.344-26.5-19.271-33.388s-26.622-6.89-38.55-0.005l0,0C68.952,383.728,64.238,388.365,60.9,393.95z"/>
		<path style="fill:#428DFF;" d="M210.3,85.467c-3.86-0.004-7.237-2.597-8.237-6.325l-7.308-27.292
			c-1.22-4.552,1.482-9.23,6.033-10.45c4.552-1.22,9.23,1.482,10.45,6.033l7.308,27.292c0.686,2.563,0.141,5.299-1.475,7.404
			C215.455,84.233,212.953,85.467,210.3,85.467L210.3,85.467z"/>
		<path style="fill:#428DFF;" d="M131.158,131.158c-2.264,0.003-4.435-0.897-6.033-2.5l-19.975-19.975
			c-3.332-3.332-3.332-8.735,0-12.067c3.332-3.332,8.735-3.332,12.067,0l19.975,19.975c2.44,2.44,3.169,6.11,1.849,9.298
			C137.72,129.078,134.61,131.157,131.158,131.158L131.158,131.158z"/>
		<path style="fill:#428DFF;" d="M380.842,131.158c-3.451-0.001-6.562-2.08-7.882-5.268c-1.32-3.188-0.591-6.858,1.849-9.298
			l19.975-19.975c2.156-2.156,5.297-2.997,8.242-2.208c2.944,0.789,5.244,3.089,6.033,6.033c0.789,2.944-0.053,6.086-2.208,8.242
			l-19.975,19.975C385.277,130.262,383.105,131.161,380.842,131.158L380.842,131.158z"/>
		<path style="fill:#428DFF;" d="M167.733,103.1c-3.052,0.006-5.873-1.622-7.396-4.267l-14.125-24.458
			c-1.535-2.64-1.542-5.899-0.018-8.546c1.524-2.647,4.346-4.277,7.4-4.274s5.874,1.637,7.393,4.287L175.113,90.3
			c1.526,2.638,1.528,5.89,0.006,8.53C173.596,101.47,170.781,103.098,167.733,103.1L167.733,103.1z"/>
		<path style="fill:#428DFF;" d="M256,79.45c-2.263,0.001-4.434-0.898-6.035-2.499c-1.6-1.6-2.499-3.771-2.499-6.035v-28.25
			c0-4.713,3.821-8.533,8.533-8.533c4.713,0,8.533,3.821,8.533,8.533v28.25c0.001,2.263-0.898,4.434-2.499,6.035
			C260.434,78.552,258.263,79.451,256,79.45z"/>
		<path style="fill:#428DFF;" d="M103.092,167.725c-1.495,0-2.964-0.394-4.258-1.142l-24.463-14.125
			c-4.08-2.358-5.477-7.575-3.121-11.656c2.356-4.081,7.573-5.481,11.655-3.127l24.463,14.125c3.348,1.931,4.98,5.871,3.978,9.604
			C110.342,165.137,106.957,167.73,103.092,167.725L103.092,167.725z"/>
		<path style="fill:#428DFF;" d="M85.467,210.308c-0.747,0.001-1.491-0.097-2.212-0.292L55.971,202.7
			c-4.552-1.22-7.253-5.898-6.033-10.45c1.22-4.552,5.898-7.253,10.45-6.033l27.283,7.317c4.134,1.109,6.806,5.11,6.249,9.353
			C93.362,207.13,89.747,210.305,85.467,210.308L85.467,210.308z"/>
		<path style="fill:#428DFF;" d="M426.533,210.308c-4.28-0.004-7.895-3.178-8.453-7.422s2.115-8.244,6.249-9.353l27.283-7.317
			c4.552-1.22,9.23,1.482,10.45,6.033c1.22,4.552-1.482,9.23-6.033,10.45l-27.283,7.317
			C428.025,210.211,427.281,210.309,426.533,210.308L426.533,210.308z"/>
		<path style="fill:#428DFF;" d="M408.909,167.725c-3.865,0.005-7.251-2.588-8.253-6.321c-1.002-3.733,0.63-7.673,3.978-9.604
			l24.463-14.125c4.082-2.353,9.299-0.954,11.655,3.127s0.958,9.298-3.121,11.656l-24.462,14.125
			C411.873,167.332,410.404,167.726,408.909,167.725L408.909,167.725z"/>
		<path style="fill:#428DFF;" d="M344.267,103.1c-3.048-0.002-5.863-1.629-7.385-4.27c-1.522-2.64-1.52-5.892,0.006-8.53
			l14.125-24.458c1.519-2.649,4.339-4.284,7.393-4.287c3.054-0.003,5.876,1.627,7.4,4.274c1.524,2.647,1.517,5.906-0.018,8.546
			l-14.125,24.458C350.14,101.478,347.318,103.106,344.267,103.1z"/>
		<path style="fill:#428DFF;" d="M301.7,85.467c-2.653,0-5.155-1.233-6.771-3.338c-1.616-2.105-2.161-4.841-1.475-7.404
			l7.308-27.292c0.789-2.944,3.089-5.244,6.033-6.033s6.086,0.053,8.242,2.208c2.156,2.155,2.997,5.297,2.208,8.242l-7.308,27.292
			C308.937,82.87,305.56,85.463,301.7,85.467L301.7,85.467z"/>
		<path style="fill:#428DFF;" d="M256.125,324.292c-6.754-0.008-13.477-0.899-20-2.65c-38.794-10.498-62.8-49.282-54.894-88.687
			c7.906-39.404,45.015-65.926,84.857-60.647c39.841,5.279,68.763,40.55,66.134,80.654
			C329.593,293.065,296.315,324.259,256.125,324.292L256.125,324.292z M255.904,187.717c-10.457,0.009-20.725,2.78-29.767,8.033l0,0
			c-25.715,14.949-36.376,46.636-24.927,74.088s41.463,42.176,70.18,34.427c28.717-7.75,47.249-35.575,43.331-65.06
			S285.648,187.699,255.904,187.717L255.904,187.717z"/>
		<path style="fill:#428DFF;" d="M79.567,256.717c-4.704,0.001-8.521-3.805-8.533-8.508
			c-0.374-66.327,34.798-127.775,92.178-161.045s128.182-33.267,185.56,0.009s92.543,94.727,92.163,161.054
			c-0.024,4.696-3.837,8.49-8.533,8.492h-0.042c-4.712-0.025-8.513-3.863-8.492-8.575c0.294-60.176-31.642-115.908-83.709-146.08
			s-116.3-30.168-168.364,0.009S87.8,187.983,88.1,248.159c0.01,4.711-3.797,8.541-8.508,8.558H79.567z"/>
		<path style="fill:#428DFF;" d="M207.729,207.725c-2.264,0.003-4.435-0.897-6.033-2.5l-78.442-78.442
			c-3.332-3.332-3.332-8.735,0-12.067c3.332-3.332,8.735-3.332,12.067,0l78.442,78.442c2.44,2.44,3.169,6.11,1.849,9.298
			S211.181,207.724,207.729,207.725L207.729,207.725z"/>
		<path style="fill:#428DFF;" d="M304.271,207.725c-3.451-0.001-6.562-2.08-7.882-5.268c-1.32-3.188-0.591-6.858,1.849-9.298
			l78.442-78.442c3.332-3.332,8.735-3.332,12.067,0s3.332,8.735,0,12.067l-78.442,78.441
			C308.706,206.828,306.535,207.728,304.271,207.725z"/>
	</g>
</g>
<g>
</g>
<g>
</g>
<g>
</g>
<g>
</g>
<g>
</g>
<g>
</g>
<g>
</g>
<g>
</g>
<g>
</g>
<g>
</g>
<g>
</g>
<g>
</g>
<g>
</g>
<g>
</g>
<g>
</g>
</svg>
