<?xml version="1.0" encoding="utf-8"?>
<!-- Generator: Adobe Illustrator 16.0.0, SVG Export Plug-In . SVG Version: 6.00 Build 0)  -->
<!DOCTYPE svg PUBLIC "-//W3C//DTD SVG 1.1//EN" "http://www.w3.org/Graphics/SVG/1.1/DTD/svg11.dtd">
<svg version="1.1" id="레이어_1" xmlns:sketch="http://www.bohemiancoding.com/sketch/ns"
	 xmlns="http://www.w3.org/2000/svg" xmlns:xlink="http://www.w3.org/1999/xlink" x="0px" y="0px" width="40px" height="40px"
	 viewBox="0 0 40 40" enable-background="new 0 0 40 40" xml:space="preserve">
<circle fill="#E6E3E3" cx="20" cy="20" r="20"/>
<g>
	<circle fill="#FFFFFF" cx="20" cy="20" r="19.709"/>
	<path fill-opacity="0.08" d="M31.438,3.947c8.863,6.316,10.933,18.623,4.614,27.486C29.734,40.3,17.429,42.365,8.563,36.048"/>
</g>
<linearGradient id="SVGID_1_" gradientUnits="userSpaceOnUse" x1="-909.6499" y1="125.5771" x2="-909.6499" y2="125.2197" gradientTransform="matrix(66.6672 0 0 -66.6672 60663.8672 8380.0059)">
	<stop  offset="0" style="stop-color:#95CE4A"/>
	<stop  offset="1" style="stop-color:#6B9911"/>
</linearGradient>
<path fill="url(#SVGID_1_)" d="M31.975,28.98c0,1.65-1.342,2.992-2.994,2.992H11.02c-1.653,0-2.993-1.342-2.993-2.992V11.02
	c0-1.653,1.34-2.993,2.993-2.993h17.96c1.651,0,2.992,1.34,2.992,2.993v17.96H31.975z"/>
<text transform="matrix(1 0 0 1 8.8965 29.8281)" fill="#FFFFFF" font-family="'NotoSansCJKkr-Bold-KSCpc-EUC-H'" font-size="6">Python</text>
<g>
	<g id="SMqkte_2_">
		<g>
			<g>
				<path fill="#95CE4A" d="M20.116,18.373c-0.113,0.434-0.248,0.983-0.398,1.525c-0.084,0.309-0.306,0.484-0.624,0.421
					c-1.188-0.236-2.387-0.452-3.552-0.777c-0.277-0.078-0.563-0.519-0.639-0.842c-0.305-1.303-0.582-2.618-0.764-3.941
					c-0.133-0.972,0.327-1.403,1.319-1.431c0.389-0.012,0.779-0.006,1.168-0.015c0.419-0.011,0.57-0.158,0.579-0.584
					c0.009-0.444-0.009-0.891,0-1.336c0.011-0.609,0.293-0.959,0.888-1.084c0.734-0.153,1.477-0.135,2.179,0.112
					c0.282,0.1,0.551,0.364,0.717,0.622c0.134,0.208,0.247,0.26,0.472,0.282c1.006,0.087,2.018,0.16,3.013,0.324
					c0.786,0.129,1.126,0.547,1.169,1.326c0.104,1.815,0.276,3.634,0.233,5.449c-0.037,1.639-0.257,3.284-0.973,4.81
					c-0.279,0.599-0.697,1.041-1.371,1.053c-0.866,0.01-1.741-0.044-2.606-0.134c-0.506-0.052-0.816-0.442-0.868-0.933
					c-0.055-0.514-0.057-1.05,0.011-1.562c0.068-0.527,0.469-0.859,0.997-0.908c0.371-0.033,0.747-0.007,1.137-0.007
					c0,0.338,0,0.647,0,0.979c-0.163,0.008-0.3,0.02-0.436,0.023c-0.321,0.012-0.57,0.09-0.563,0.495
					c0.007,0.437,0.103,0.571,0.553,0.589c0.403,0.019,0.808,0.019,1.208-0.013c0.365-0.025,0.594-0.237,0.585-0.621
					c-0.007-0.472-0.009-0.944-0.077-1.407c-0.081-0.566-0.411-0.822-0.98-0.884c-0.427-0.046-0.854-0.101-1.276-0.184
					C20.461,19.574,20.188,19.199,20.116,18.373z M22.418,16.845c0.471,0.059,0.915,0.112,1.358,0.167
					c0.062-0.521-0.132-0.833-0.574-0.891C22.75,16.063,22.492,16.3,22.418,16.845z"/>
			</g>
		</g>
	</g>
	<path fill="#95CE4A" d="M15.744,13.321c0.51-0.534,1.099-1.148,1.701-1.778c0,0.517-0.008,0.996,0.003,1.475
		c0.007,0.229-0.063,0.315-0.304,0.308C16.642,13.31,16.136,13.321,15.744,13.321z"/>
	<g id="SMqkte_1_">
		<g>
			<g>
				
					<linearGradient id="SVGID_2_" gradientUnits="userSpaceOnUse" x1="-774.6924" y1="107.3594" x2="-774.6924" y2="106.4805" gradientTransform="matrix(16 0 0 16 12415.0781 -1694.3125)">
					<stop  offset="0" style="stop-color:#121212"/>
					<stop  offset="0.4954" style="stop-color:#0F0F0F"/>
					<stop  offset="0.869" style="stop-color:#050505"/>
					<stop  offset="1" style="stop-color:#000000"/>
				</linearGradient>
				<path fill="url(#SVGID_2_)" d="M20.116,17.528c-0.113,0.435-0.248,0.983-0.398,1.527c-0.084,0.309-0.306,0.484-0.624,0.42
					c-1.188-0.237-2.387-0.453-3.552-0.777c-0.277-0.077-0.563-0.519-0.639-0.842c-0.305-1.303-0.582-2.618-0.764-3.942
					c-0.133-0.973,0.327-1.402,1.319-1.431c0.389-0.012,0.779-0.005,1.168-0.016c0.419-0.011,0.57-0.155,0.579-0.584
					c0.009-0.445-0.009-0.89,0-1.334c0.011-0.611,0.293-0.959,0.888-1.085c0.734-0.153,1.477-0.134,2.179,0.112
					c0.282,0.1,0.551,0.362,0.717,0.621c0.134,0.208,0.247,0.262,0.472,0.282c1.006,0.088,2.018,0.16,3.013,0.324
					c0.786,0.129,1.126,0.548,1.169,1.327c0.104,1.815,0.276,3.635,0.233,5.449c-0.037,1.639-0.257,3.282-0.973,4.81
					c-0.279,0.599-0.697,1.042-1.371,1.051c-0.866,0.013-1.741-0.04-2.606-0.132c-0.506-0.052-0.816-0.441-0.868-0.935
					c-0.055-0.516-0.057-1.046,0.011-1.562c0.068-0.527,0.469-0.858,0.997-0.906c0.371-0.035,0.747-0.008,1.137-0.008
					c0,0.335,0,0.647,0,0.978c-0.163,0.009-0.3,0.02-0.436,0.024c-0.321,0.013-0.57,0.089-0.563,0.494
					c0.007,0.438,0.103,0.571,0.553,0.59c0.403,0.018,0.808,0.018,1.208-0.013c0.365-0.027,0.594-0.238,0.585-0.623
					c-0.007-0.467-0.009-0.941-0.077-1.405c-0.081-0.568-0.411-0.824-0.98-0.883c-0.427-0.047-0.854-0.101-1.276-0.185
					C20.461,18.729,20.188,18.355,20.116,17.528z M22.418,16.002c0.471,0.058,0.915,0.112,1.358,0.165
					c0.062-0.519-0.132-0.83-0.574-0.888C22.75,15.219,22.492,15.454,22.418,16.002z"/>
			</g>
		</g>
	</g>
	
		<linearGradient id="SVGID_3_" gradientUnits="userSpaceOnUse" x1="-774.9053" y1="106.707" x2="-774.9053" y2="106.5957" gradientTransform="matrix(16 0 0 16 12415.0781 -1694.3125)">
		<stop  offset="0" style="stop-color:#000000"/>
		<stop  offset="1" style="stop-color:#000000"/>
	</linearGradient>
	<path fill="url(#SVGID_3_)" d="M15.744,12.984c0.51-0.534,1.099-1.149,1.701-1.78c0,0.517-0.008,0.996,0.003,1.475
		c0.007,0.228-0.063,0.316-0.304,0.309C16.642,12.972,16.136,12.984,15.744,12.984z"/>
</g>
</svg>
