<?xml version="1.0" encoding="UTF-8" standalone="no"?>
<!-- Generator: Adobe Illustrator 16.0.0, SVG Export Plug-In . SVG Version: 6.00 Build 0)  -->

<svg
   xmlns:dc="http://purl.org/dc/elements/1.1/"
   xmlns:cc="http://creativecommons.org/ns#"
   xmlns:rdf="http://www.w3.org/1999/02/22-rdf-syntax-ns#"
   xmlns:svg="http://www.w3.org/2000/svg"
   xmlns="http://www.w3.org/2000/svg"
   xmlns:sodipodi="http://sodipodi.sourceforge.net/DTD/sodipodi-0.dtd"
   xmlns:inkscape="http://www.inkscape.org/namespaces/inkscape"
   version="1.1"
   id="레이어_1"
   x="0px"
   y="0px"
   width="40px"
   height="40px"
   viewBox="0 0 40 40"
   enable-background="new 0 0 40 40"
   xml:space="preserve"
   inkscape:version="0.91 r13725"
   sodipodi:docname="evernote2.svg"><metadata
     id="metadata58"><rdf:RDF><cc:Work
         rdf:about=""><dc:format>image/svg+xml</dc:format><dc:type
           rdf:resource="http://purl.org/dc/dcmitype/StillImage" /><dc:title /></cc:Work></rdf:RDF></metadata><defs
     id="defs56"><linearGradient
       id="SVGID_3_-3"
       gradientUnits="userSpaceOnUse"
       x1="-1241.3765"
       y1="280.4707"
       x2="-1241.3765"
       y2="280.582"
       gradientTransform="matrix(16,0,0,-16,19841.583,4498.0256)"><stop
         offset="0"
         style="stop-color:#000000"
         id="stop48-6" /><stop
         offset="1"
         style="stop-color:#000000"
         id="stop50-7" /></linearGradient><linearGradient
       id="SVGID_2_"
       gradientUnits="userSpaceOnUse"
       x1="-1241.1636"
       y1="279.81839"
       x2="-1241.1636"
       y2="280.6973"
       gradientTransform="matrix(16,0,0,-16,19878.617,4500.5313)"><stop
         offset="0"
         style="stop-color:#121212"
         id="stop37" /><stop
         offset="0.4954"
         style="stop-color:#0F0F0F"
         id="stop39" /><stop
         offset="0.869"
         style="stop-color:#050505"
         id="stop41" /><stop
         offset="1"
         style="stop-color:#000000"
         id="stop43" /></linearGradient></defs><sodipodi:namedview
     pagecolor="#ffffff"
     bordercolor="#666666"
     borderopacity="1"
     objecttolerance="10"
     gridtolerance="10"
     guidetolerance="10"
     inkscape:pageopacity="0"
     inkscape:pageshadow="2"
     inkscape:window-width="1920"
     inkscape:window-height="1015"
     id="namedview54"
     showgrid="false"
     inkscape:zoom="16.68772"
     inkscape:cx="32.64556"
     inkscape:cy="19.028029"
     inkscape:window-x="0"
     inkscape:window-y="28"
     inkscape:window-maximized="1"
     inkscape:current-layer="레이어_1" /><circle
     cx="20"
     cy="20"
     r="20"
     id="circle3"
     fill="#E6E3E3" /><linearGradient
     id="SVGID_1_"
     gradientUnits="userSpaceOnUse"
     x1="-1395.1431"
     y1="283.0811"
     x2="-1395.1431"
     y2="283.4375"
     gradientTransform="matrix(66.6672 0 0 66.6672 93030.3359 -18864.0059)"><stop
       offset="0"
       style="stop-color:#95CE4A"
       id="stop12" /><stop
       offset="1"
       style="stop-color:#6B9911"
       id="stop14" /></linearGradient><g
     transform="matrix(0.29943386,0,0,0.30006756,-2.4220526,-2.4918631)"
     id="g3374"><circle
       style="fill:#7ac143"
       id="circle9"
       r="65.487999"
       cy="74.956001"
       cx="75.023003" /><path
       style="fill:#71b33e"
       inkscape:connector-curvature="0"
       id="path11"
       d="m 75.023,9.468 0,130.976 c 36.168,0 65.486,-29.32 65.486,-65.488 C 140.51,38.788 111.191,9.468 75.023,9.468 Z" /><g
       id="g13"><path
         style="fill:#71b33e"
         inkscape:connector-curvature="0"
         id="path15"
         d="M 9.607,72.029 C 9.566,73 9.535,73.974 9.535,74.955 c 0,36.168 29.32,65.488 65.488,65.488 l 0,-5.853 C 39.836,134.591 11.141,106.838 9.607,72.029 Z" /><path
         style="fill:#68a739"
         inkscape:connector-curvature="0"
         id="path17"
         d="m 140.438,72.029 c -1.533,34.809 -30.229,62.562 -65.414,62.562 l 0,5.853 c 36.168,0 65.486,-29.32 65.486,-65.488 0,-0.982 -0.03,-1.956 -0.072,-2.927 z" /></g></g><path
     inkscape:connector-curvature="0"
     style="fill:#ffffff"
     d="m 12.314988,12.424288 2.088289,0 c 0.11855,0 0.216225,-0.09819 0.216225,-0.216739 0,0 -0.02706,-1.788821 -0.02706,-2.2854442 l 0,-0.0069 c 0,-0.407968 0.08659,-0.764652 0.237358,-1.0623158 l 0.0701,-0.1342708 c -0.0091,0.00207 -0.01598,0.00413 -0.02422,0.01237 l -4.055192,4.0214338 c -0.0075,0.0057 -0.01212,0.01444 -0.01391,0.02371 0.08324,-0.04097 0.19664,-0.09819 0.214163,-0.104888 0.351786,-0.159785 0.781144,-0.246894 1.294261,-0.246894 l 0,0 z m 16.237521,-0.437605 0,0 C 28.387311,11.099361 27.85899,10.660983 27.380923,10.488827 26.86755,10.303786 25.82276,10.111271 24.514326,9.9571548 23.456909,9.8326778 22.219089,9.8427218 21.469904,9.8648888 21.380211,9.2499748 20.94854,8.6871173 20.46403,8.4925393 19.17776,7.9747852 17.188435,8.1000351 16.678411,8.2420382 c -0.405133,0.113399 -0.855624,0.3471457 -1.10561,0.7051156 -0.167001,0.23839 -0.2755,0.545848 -0.2755,0.973661 0,0.2417392 0.006,0.8133572 0.01159,1.3208042 0.0062,0.507447 0.01289,0.963866 0.01289,0.965927 0,0.453842 -0.367507,0.822893 -0.821863,0.822893 l -2.087515,0 c -0.445853,0 -0.785267,0.07526 -1.045047,0.192773 -0.25978,0.118551 -0.445594,0.277048 -0.584504,0.466213 -0.278593,0.374206 -0.327303,0.835264 -0.326271,1.307403 0,0 0.0041,0.385288 0.09742,1.130867 0.07628,0.576772 0.702539,4.605934 1.295291,5.830868 0.230914,0.475747 0.385288,0.674964 0.83681,0.886035 1.008708,0.430904 3.311933,0.911033 4.390225,1.048913 1.078035,0.138394 1.754287,0.427296 2.156584,-0.417761 0.0011,-0.0031 0.0817,-0.209783 0.190454,-0.515952 0.349465,-1.059478 0.399463,-1.999891 0.399463,-2.681041 0,-0.06984 0.100248,-0.07293 0.100248,0 0,0.480387 -0.09071,2.181325 1.194522,2.63826 0.507962,0.178341 1.559452,0.339929 2.62692,0.464924 0.967216,0.111331 1.668724,0.491466 1.668724,2.971487 0,1.508939 -0.316478,1.715371 -1.973605,1.715371 -1.342968,0 -1.856085,0.03479 -1.856085,-1.031388 0,-0.862323 0.85382,-0.772895 1.487034,-0.772895 0.281169,0 0.07706,-0.20901 0.07706,-0.74094 0,-0.530384 0.331167,-0.836553 0.01701,-0.844027 -2.185706,-0.05953 -3.472234,-0.0021 -3.472234,2.732069 0,2.481567 0.950205,2.941851 4.052356,2.941851 2.432601,0 3.289256,-0.07989 4.295129,-3.195187 0.1987,-0.615946 0.679344,-2.491876 0.970565,-5.644797 0.183238,-1.993964 -0.17499,-8.009359 -0.457964,-9.526804 l 0,0 z m -4.239719,6.648352 0,0 c -0.301529,-0.01057 -0.5894,0.0077 -0.859746,0.05205 0.07758,-0.612338 0.32962,-1.365133 1.225191,-1.333948 0.991699,0.03427 1.129577,0.972111 1.133443,1.607386 -0.416987,-0.187361 -0.935773,-0.305654 -1.498888,-0.325498 l 0,0 z"
     id="path19" /></svg>