<?xml version="1.0" encoding="utf-8"?>
<!-- Generator: Adobe Illustrator 16.0.0, SVG Export Plug-In . SVG Version: 6.00 Build 0)  -->
<!DOCTYPE svg PUBLIC "-//W3C//DTD SVG 1.1//EN" "http://www.w3.org/Graphics/SVG/1.1/DTD/svg11.dtd">
<svg version="1.1" id="레이어_1" xmlns:sketch="http://www.bohemiancoding.com/sketch/ns"
	 xmlns="http://www.w3.org/2000/svg" xmlns:xlink="http://www.w3.org/1999/xlink" x="0px" y="0px" width="40px" height="40px"
	 viewBox="0 0 40 40" enable-background="new 0 0 40 40" xml:space="preserve">
<g>
	<path id="SVGCleanerId_0" fill="#3E77BF" d="M20.066,0C9.054,0,0.125,9.199,0.125,20.552c0,9.078,5.712,16.784,13.641,19.498
		c0.996,0.188,1.358-0.445,1.358-0.989c0-0.487-0.017-1.781-0.028-3.494c-5.547,1.243-6.717-2.756-6.717-2.756
		c-0.905-2.378-2.212-3.005-2.212-3.005c-1.811-1.276,0.137-1.252,0.137-1.252c2,0.146,3.054,2.118,3.054,2.118
		c1.779,3.143,4.668,2.232,5.804,1.706c0.181-1.325,0.696-2.235,1.266-2.746c-4.426-0.521-9.083-2.28-9.083-10.154
		c0-2.244,0.777-4.078,2.053-5.517c-0.208-0.52-0.891-2.608,0.193-5.438c0,0,1.675-0.553,5.484,2.106
		c1.59-0.455,3.297-0.684,4.993-0.693c1.694,0.01,3.4,0.237,4.996,0.693c3.805-2.659,5.478-2.106,5.478-2.106
		c1.087,2.828,0.401,4.917,0.196,5.437c1.282,1.438,2.053,3.271,2.053,5.517c0,7.893-4.662,9.629-9.106,10.142
		c0.716,0.634,1.357,1.887,1.357,3.806c0,2.745-0.022,4.961-0.022,5.637c0,0.548,0.356,1.188,1.369,0.986
		c7.919-2.721,13.624-10.419,13.624-19.496C40.008,9.199,31.079,0,20.066,0z"/>
	<path fill="#083E66" d="M26.074,34.81c0-1.919-0.637-3.173-1.354-3.808c4.439-0.509,9.102-2.248,9.102-10.14
		c0-2.244-0.773-4.077-2.053-5.516c0.209-0.519,0.896-2.609-0.192-5.437c0,0-0.208-0.066-0.64-0.041
		c0.472,2.133-0.028,3.659-0.204,4.091c1.278,1.438,2.051,3.271,2.051,5.517c0,7.893-4.662,9.629-9.103,10.141
		c0.716,0.635,1.353,1.887,1.353,3.806c0,2.746-0.021,4.963-0.021,5.637c0,0.484,0.279,1.039,1.037,1.022
		C26.055,39.154,26.074,37.184,26.074,34.81z"/>
	<path fill="#114C82" d="M9.57,34.57c0.418,0.881,1.825,3.003,5.539,2.554c-0.004-0.467-0.009-0.987-0.013-1.563
		C12.233,36.206,10.542,35.451,9.57,34.57z"/>
	<path fill="#6CA9EA" d="M10.287,31.877c-0.129-0.198-0.369-0.533-0.716-0.869C9.796,31.353,10.036,31.64,10.287,31.877z"/>
</g>
</svg>
