<?xml version="1.0" encoding="utf-8"?>
<!-- Generator: Adobe Illustrator 16.0.0, SVG Export Plug-In . SVG Version: 6.00 Build 0)  -->
<!DOCTYPE svg PUBLIC "-//W3C//DTD SVG 1.1//EN" "http://www.w3.org/Graphics/SVG/1.1/DTD/svg11.dtd">
<svg version="1.1" id="레이어_1" xmlns:sketch="http://www.bohemiancoding.com/sketch/ns"
	 xmlns="http://www.w3.org/2000/svg" xmlns:xlink="http://www.w3.org/1999/xlink" x="0px" y="0px" width="40px" height="40px"
	 viewBox="0 0 40 40" enable-background="new 0 0 40 40" xml:space="preserve">
<path sketch:type="MSShapeGroup" fill="#FFFFFF" d="M0.3,20C0.3,8.954,9.119,0,20,0c10.88,0,19.7,8.954,19.7,20S30.88,40,20,40
	C9.119,40,0.3,31.046,0.3,20z"/>
<path id="reflec" sketch:type="MSShapeGroup" fill-opacity="0.08" d="M39.551,20c0,11.046-8.82,20-19.701,20
	c-4.035,0-7.787-1.231-10.911-3.345L31.514,3.879C36.388,7.521,39.551,13.385,39.551,20z"/>
<g transform="translate(1 1)">
	<polygon fill="#3DB9F9" points="32.117,23.145 13.834,23.145 10.012,30.513 27.973,30.513 	"/>
	<polygon fill="#63D3FD" points="30.736,23.145 13.834,23.145 10.012,30.513 26.591,30.513 	"/>
	<polygon fill="#FFA800" points="22.907,7.487 14.617,7.487 23.367,23.145 32.117,23.145 	"/>
	<polygon fill="#FFE100" points="21.525,7.487 15.078,7.487 23.828,23.145 30.736,23.145 	"/>
	<polygon fill="#FFFFFF" points="14.617,7.487 5.867,22.224 10.012,30.513 18.439,14.303 	"/>
	<polygon fill="#00DA6C" points="15.078,8.869 7.249,22.224 10.012,30.513 18.301,14.303 	"/>
	<path d="M27.973,30.974H10.012c-0.139,0-0.322-0.092-0.415-0.23c-0.092-0.138-0.092-0.322,0-0.46l3.823-7.369
		c0.092-0.138,0.229-0.229,0.414-0.229h18.283c0.185,0,0.323,0.092,0.415,0.229c0.092,0.139,0.092,0.323,0,0.461l-4.145,7.368
		C28.295,30.882,28.157,30.974,27.973,30.974z M10.749,30.053h16.947l3.639-6.447H14.11L10.749,30.053z"/>
	<path d="M10.012,30.974L10.012,30.974c-0.185,0-0.322-0.092-0.415-0.276l-4.145-8.289c-0.092-0.139-0.046-0.323,0-0.461
		l8.75-14.737c0.093-0.092,0.23-0.184,0.415-0.184l0,0c0.185,0,0.322,0.092,0.414,0.23l3.822,6.815c0.093,0.138,0.093,0.322,0,0.415
		l-8.428,16.256C10.334,30.882,10.196,30.974,10.012,30.974z M6.374,22.224l3.638,7.276l7.875-15.151l-3.27-5.94L6.374,22.224z"/>
	<path d="M32.117,23.605h-8.75c-0.184,0-0.322-0.092-0.414-0.23L14.202,7.717c-0.092-0.138-0.092-0.322,0-0.46
		c0.093-0.138,0.23-0.23,0.415-0.23h8.29c0.184,0,0.322,0.092,0.414,0.23l9.211,15.657c0.092,0.139,0.092,0.323,0,0.461
		C32.44,23.514,32.302,23.605,32.117,23.605z M23.644,22.685h7.691L22.631,7.948H15.4L23.644,22.685z"/>
</g>
</svg>
