<?xml version="1.0" encoding="utf-8"?>
<!-- Generator: Adobe Illustrator 16.0.0, SVG Export Plug-In . SVG Version: 6.00 Build 0)  -->
<!DOCTYPE svg PUBLIC "-//W3C//DTD SVG 1.1//EN" "http://www.w3.org/Graphics/SVG/1.1/DTD/svg11.dtd">
<svg version="1.1" id="레이어_1" xmlns:sketch="http://www.bohemiancoding.com/sketch/ns"
	 xmlns="http://www.w3.org/2000/svg" xmlns:xlink="http://www.w3.org/1999/xlink" x="0px" y="0px" width="40px" height="40px"
	 viewBox="0 0 40 40" enable-background="new 0 0 40 40" xml:space="preserve">
<circle fill="#E6E3E3" cx="20" cy="20" r="20"/>
<g>
	<circle fill="#FFFFFF" cx="20" cy="20" r="19.709"/>
	<path fill-opacity="0.08" d="M31.438,3.947c8.863,6.316,10.93,18.624,4.614,27.486C29.735,40.3,17.429,42.365,8.563,36.048"/>
</g>
<g transform="translate(1 1)">
	<polygon fill="#3DB9F9" points="31.476,22.941 14.087,22.941 10.452,29.949 27.534,29.949 	"/>
	<polygon fill="#63D3FD" points="30.161,22.941 14.087,22.941 10.452,29.949 26.219,29.949 	"/>
	<polygon fill="#FFA800" points="22.716,8.049 14.831,8.049 23.153,22.941 31.476,22.941 	"/>
	<polygon fill="#FFE100" points="21.401,8.049 15.27,8.049 23.592,22.941 30.161,22.941 	"/>
	<polygon fill="#FFFFFF" points="14.831,8.049 6.51,22.065 10.452,29.949 18.467,14.532 	"/>
	<polygon fill="#00DA6C" points="15.27,9.364 7.824,22.065 10.452,29.949 18.335,14.532 	"/>
	<path d="M27.534,30.388H10.452c-0.132,0-0.307-0.088-0.394-0.219c-0.088-0.132-0.088-0.308,0-0.438l3.635-7.008
		c0.088-0.132,0.217-0.22,0.394-0.22h17.389c0.175,0,0.307,0.088,0.394,0.22c0.088,0.131,0.088,0.307,0,0.438l-3.941,7.008
		C27.84,30.3,27.709,30.388,27.534,30.388z M11.153,29.511H27.27l3.462-6.131H14.349L11.153,29.511z"/>
	<path d="M10.452,30.388L10.452,30.388c-0.176,0-0.307-0.088-0.394-0.262l-3.943-7.884c-0.088-0.134-0.043-0.308,0-0.438
		l8.322-14.017c0.088-0.086,0.218-0.174,0.394-0.174l0,0c0.176,0,0.307,0.088,0.394,0.219l3.636,6.481
		c0.087,0.131,0.087,0.307,0,0.395l-8.016,15.462C10.758,30.3,10.626,30.388,10.452,30.388z M6.992,22.065l3.459,6.92l7.489-14.409
		l-3.11-5.65L6.992,22.065z"/>
	<path d="M31.476,23.38h-8.322c-0.174,0-0.307-0.088-0.394-0.22L14.437,8.268c-0.088-0.13-0.088-0.306,0-0.436
		c0.088-0.131,0.218-0.219,0.394-0.219h7.885c0.175,0,0.306,0.088,0.393,0.219l8.761,14.89c0.088,0.132,0.088,0.306,0,0.438
		C31.782,23.292,31.65,23.38,31.476,23.38z M23.417,22.504h7.314L22.453,8.488h-6.876L23.417,22.504z"/>
</g>
</svg>
